<svg xmlns="http://www.w3.org/2000/svg" xmlns:xlink="http://www.w3.org/1999/xlink"><defs><symbol viewBox="0 0 24 24" id="calendar"><path fill="currentColor" d="M12 7v3h3V7h-3zm0 0v3h3V7h-3zm4 0v3h3V7h-3zM4 11v3h3v-3H4zm8 0v3h3v-3h-3zm0 0v3h3v-3h-3zm4 0v3h3v-3h-3zM4 15v3h3v-3H4zm8 0v3h3v-3h-3zm0 0v3h3v-3h-3zM8 7v3h3V7H8zm0 0v3h3V7H8zm0 4v3h3v-3H8zm0 0v3h3v-3H8zm0 4v3h3v-3H8zm0 0v3h3v-3H8z" /></symbol><symbol viewBox="0 0 16 16" id="chevron"><path stroke="currentColor" fill="none" d="M3 6l5 5 5-5" /></symbol><symbol viewBox="0 0 16 16" id="chevron-right"><path fill="currentColor" d="M5 2.7l4.7 4.8L5 12.3l.7.7L11 7.5 5.7 2l-.7.7z" /></symbol><symbol viewBox="0 0 13 10" id="cloud"><path fill="currentColor" d="M10 4c1.7 0 3 1.3 3 3s-1.3 3-3 3H3.6C1.7 10 .1 8.4.1 6.5c0-1.7 1.3-3 3-3C3.1 1.6 4.7 0 6.6 0s3.5 1.6 3.5 3.5c-.1.2-.1.3-.1.5z" /></symbol><symbol viewBox="0 0 24 24" id="cog"><path fill="currentColor" d="M11.844 16.156a4 4 0 1 1 0-8 4 4 0 0 1 0 8m6-4c0-.029-.004-.058-.004-.087l1.848-.34-.362-1.968-1.852.342a5.992 5.992 0 0 0-1.454-2.246l1.068-1.55-1.646-1.134-1.07 1.55a5.95 5.95 0 0 0-2.528-.567c-.03 0-.058.004-.087.004l-.341-1.848-1.967.363.34 1.851A5.996 5.996 0 0 0 7.546 7.98l-1.55-1.068L4.86 8.558l1.55 1.07a5.95 5.95 0 0 0-.567 2.528c0 .03.004.058.004.087L4 12.584l.362 1.967 1.852-.342a5.992 5.992 0 0 0 1.454 2.246L6.6 18.005l1.646 1.134 1.069-1.55a5.95 5.95 0 0 0 2.529.567c.029 0 .058-.004.087-.004L12.27 20l1.968-.363-.341-1.85a5.996 5.996 0 0 0 2.245-1.455l1.55 1.068 1.134-1.646-1.55-1.069a5.95 5.95 0 0 0 .567-2.529" /></symbol><symbol viewBox="0 0 16 16" id="dots"><path d="M14 6.125a1.874 1.874 0 1 1 .001 3.749A1.874 1.874 0 0 1 14 6.125zm-5.906 0a1.874 1.874 0 1 1 0 3.749 1.874 1.874 0 0 1 0-3.749zM2 6.125a1.874 1.874 0 1 1 .001 3.749A1.874 1.874 0 0 1 2 6.125z" fill="currentColor" fill-rule="evenodd" /></symbol><symbol viewBox="0 0 6 10" id="drag-handle"><path fill="currentColor" d="M0 0h2v2H0zm0 4h2v2H0zm0 4h2v2H0zm4-8h2v2H4zm0 4h2v2H4zm0 4h2v2H4z" /></symbol><symbol viewBox="0 0 24 24" id="facebook"><path d="M13.79 22H9.93v-9.501H8V9.225h1.93V7.26C9.93 4.589 11.017 3 14.113 3h2.577v3.275h-1.61c-1.206 0-1.285.457-1.285 1.311l-.006 1.639h2.918l-.341 3.274H13.79V22z" /></symbol><symbol viewBox="0 0 24 24" id="favorite-empty"><path d="M13.959 16.477l1.979 1.153-1.006-4.404 3.427-2.969-4.543-.415L12 5.686l-1.816 4.156-4.543.415 3.427 2.969-1.006 4.403L12 15.324l1.979 1.152z" stroke="currentColor" stroke-width="1.35" fill="none" /></symbol><symbol viewBox="0 0 24 24" id="favorite-filled"><path fill="currentColor" d="M12 16.106L7.056 19l1.264-5.53L4 9.73l5.726-.524L12 4l2.274 5.206L20 9.729l-4.32 3.741L16.944 19z" /></symbol><symbol viewBox="0 0 16 16" id="folder-inline"><path d="M13 12H3V6h10v6zM7 5l-.778-1.438C5.934 3.208 5.586 3 5.004 3H3c-.552 0-1 .453-1 1v8c0 .552.456 1 1.002 1h9.996c.553 0 1.002-.453 1.002-.997V5.997A.993.993 0 0 0 12.997 5H7z" fill="currentColor" fill-rule="evenodd" /></symbol><symbol viewBox="0 0 20 20" id="header-sidemenu"><g fill="currentColor" fill-rule="evenodd"><rect y="9" width="20" height="2" rx="1" /><rect y="3" width="14" height="2" rx="1" /><rect y="15" width="14" height="2" rx="1" /></g></symbol><symbol viewBox="0 0 16 16" id="link"><path fill="currentColor" d="M10.893 6.52l-.094.094-1.414 1.413-1.359 1.36L6.612 10.8l-.094.095a.997.997 0 0 1-1.414 0 .999.999 0 0 1 0-1.415l.094-.094 1.414-1.413 1.36-1.36L9.384 5.2l.094-.093a.997.997 0 0 1 1.414 0 .999.999 0 0 1 0 1.413zm4.298-3.968a2.758 2.758 0 0 1 0 3.896l-1.745 1.746A2.738 2.738 0 0 1 11.498 9c-.646 0-1.25-.231-1.74-.637l1.435-1.436c.277.117.62.07.84-.147l1.744-1.746a.757.757 0 0 0 0-1.068L12.032 2.22a.753.753 0 0 0-1.068 0L9.22 3.966a.753.753 0 0 0-.15.842L7.636 6.24a2.75 2.75 0 0 1 .168-3.69L9.55.808c1.041-1.041 2.855-1.041 3.896 0l1.745 1.745zm-8.264 8.64L8.361 9.76a2.748 2.748 0 0 1-.17 3.69l-1.745 1.744A2.735 2.735 0 0 1 4.5 16a2.735 2.735 0 0 1-1.948-.807L.804 13.448a2.76 2.76 0 0 1 0-3.897L2.55 7.806c.975-.977 2.627-1.025 3.688-.167L4.808 9.07a.743.743 0 0 0-.842.15l-1.747 1.746a.757.757 0 0 0 0 1.068l1.746 1.745a.778.778 0 0 0 1.067 0l1.745-1.745a.751.751 0 0 0 .15-.842z" /></symbol><symbol viewBox="0 0 16 16" id="lock"><path d="M5.75 6.232C5.75 3.811 6.953 3.5 8 3.5s2.25.31 2.25 2.732V7h-4.5v-.768zm6 .768v-.768C11.75 2.55 9.4 2 8 2s-3.75.55-3.75 4.232V7H3v7h10V7h-1.25z" fill="currentColor" fill-rule="evenodd" /></symbol><symbol viewBox="0 0 34 34" id="loupe"><g fill="none" fill-rule="evenodd"><g transform="rotate(-43 26.26 26.58)"><rect fill="#D8D8D8" x="24.26" y="18.081" width="4" height="17" rx="2" /><rect stroke="#293050" x="24.76" y="18.581" width="3" height="16" rx="1.5" /></g><circle stroke="#293050" fill="#FFF" transform="rotate(-43 16 15)" cx="16" cy="15" r="14" /><circle stroke="#293050" fill="#E9F3FF" transform="rotate(-43 16 15)" cx="16" cy="15" r="11" /></g></symbol><symbol viewBox="0 0 16 16" id="minus"><path d="M9 7h4a1 1 0 1 1 0 2H3a1 1 0 1 1 0-2z" fill="currentColor" fill-rule="evenodd" /></symbol><symbol viewBox="0 0 16 16" id="plus">
    <path fill="currentColor" d="M9 7h4a1 1 0 1 1 0 2H9v4a1 1 0 1 1-2 0V9H3a1 1 0 1 1 0-2h4V3a1 1 0 1 1 2 0v4z" />
</symbol><symbol viewBox="0 0 24 24" id="preview-close">
    <path stroke="currentColor" stroke-width="2" stroke-linecap="round" d="M7.357 7.357l9.286 9.286m0-9.286l-9.286 9.286" />
</symbol><symbol viewBox="0 0 16 16" fill="none" id="question-mark">
<path d="M15.5 8C15.5 12.1421 12.1421 15.5 8 15.5C3.85786 15.5 0.5 12.1421 0.5 8C0.5 3.85786 3.85786 0.5 8 0.5C12.1421 0.5 15.5 3.85786 15.5 8Z" stroke="currentColor" stroke-opacity="0.15" />
<path opacity="0.5" fill-rule="evenodd" clip-rule="evenodd" d="M8.46436 9.92432H7.09473C7.09115 9.72738 7.08936 9.60742 7.08936 9.56445C7.08936 9.12044 7.16276 8.75521 7.30957 8.46875C7.45638 8.18229 7.75 7.86003 8.19043 7.50195C8.63086 7.14388 8.89404 6.90934 8.97998 6.79834C9.11247 6.62288 9.17871 6.42953 9.17871 6.21826C9.17871 5.92464 9.06144 5.6731 8.8269 5.46362C8.59237 5.25415 8.27637 5.14941 7.87891 5.14941C7.49577 5.14941 7.17529 5.25863 6.91748 5.47705C6.65967 5.69548 6.48242 6.02848 6.38574 6.47607L5 6.3042C5.03939 5.66325 5.31242 5.11898 5.81909 4.67139C6.32577 4.22379 6.99088 4 7.81445 4C8.68099 4 9.37028 4.22648 9.88232 4.67944C10.3944 5.13241 10.6504 5.65966 10.6504 6.26123C10.6504 6.59424 10.5564 6.90934 10.3684 7.20654C10.1804 7.50375 9.77849 7.90836 9.1626 8.42041C8.84391 8.68539 8.64608 8.89844 8.56909 9.05957C8.49211 9.2207 8.45719 9.50895 8.46436 9.92432ZM7.09473 11.9546V10.4453H8.604V11.9546H7.09473Z" fill="currentColor" />
</symbol><symbol viewBox="0 0 10 10" id="remove">
    <path d="M10 0.7L9.3 0L5 4.3L0.7 0L0 0.7L4.3 5L0 9.3L0.7 10L5 5.7L9.3 10L10 9.3L5.7 5L10 0.7Z" fill="currentColor" />
</symbol><symbol viewBox="0 0 24 24" id="scope-folder"><g fill="none" fill-rule="evenodd"><path d="M2 2h9.333a1 1 0 0 1 .886.535l3.674 7A1 1 0 0 1 15.007 11H2a1 1 0 0 1-1-1V3a1 1 0 0 1 1-1z" fill="#FFDB4D" /><path d="M1 6h21a1 1 0 0 1 1 1v14a1 1 0 0 1-1 1H2a1 1 0 0 1-1-1V6z" fill="#FDE785" /></g></symbol><symbol viewBox="0 0 16 16" id="share"><path fill="currentColor" d="M12.5 5a2.98 2.98 0 0 0-1.976.758L6.45 3.495c.027-.162.05-.325.05-.495a3 3 0 1 0-3 3c.76 0 1.447-.292 1.976-.759L9.55 7.505c-.027.162-.05.326-.05.495 0 .169.023.333.05.495l-4.074 2.264A2.975 2.975 0 0 0 3.5 10a3 3 0 1 0 3 3c0-.17-.023-.333-.05-.495l4.074-2.263A2.98 2.98 0 0 0 12.5 11a3 3 0 1 0 0-6z" /></symbol><symbol viewBox="0 0 24 24" id="telegram"><path d="M2.336 11.932l4.378 1.634 1.694 5.45a.515.515 0 0 0 .819.246l2.44-1.99a.728.728 0 0 1 .888-.024l4.401 3.196c.303.22.732.054.808-.312l3.225-15.51a.516.516 0 0 0-.691-.587L2.33 10.968a.516.516 0 0 0 .006.965zm5.799.764l8.556-5.27c.154-.094.312.114.18.237L9.81 14.226c-.248.231-.408.54-.454.876l-.24 1.783c-.032.238-.367.261-.432.031l-.925-3.25a.862.862 0 0 1 .376-.97z" /></symbol><symbol viewBox="0 0 16 16" id="tick"><path fill="currentColor" d="M5.95 11.008L1.863 6.572.392 7.927l5.533 6.003 9.67-10.114-1.444-1.381z" fill-rule="evenodd" /></symbol><symbol viewBox="0 0 16 16" id="time-refresh"><path fill="currentColor" d="M7.6 11.429c-2.21 0-4-1.76-4-3.929 0-2.17 1.79-3.929 4-3.929a3.99 3.99 0 0 1 2.652 1.008L8.399 6.244 14 7.6 13.12 2l-1.678 1.509A5.62 5.62 0 0 0 7.6 2C4.507 2 2 4.462 2 7.5S4.507 13 7.6 13a5.606 5.606 0 0 0 5.004-3.042l-1.441-.708a3.994 3.994 0 0 1-3.564 2.179" fill-rule="evenodd" /></symbol><symbol viewBox="0 0 24 24" fill="none" id="toast-attention"><path opacity=".01" fill="#D8D8D8" d="M0 0h24v24H0z" /><path fill-rule="evenodd" clip-rule="evenodd" d="M11.048 4.524c.41-.699 1.511-.699 1.92 0l7.902 13.022c.387.659-.138 1.454-.96 1.454H4.09c-.822 0-1.347-.795-.96-1.454l7.918-13.022zm2.093 9.41h-2.265V9.072h2.265v4.86zm-2.265 3.34h2.265v-1.98h-2.265v1.98z" fill="#FF0400" /></symbol><symbol viewBox="0 0 24 24" fill="none" id="toast-success"><path fill-rule="evenodd" clip-rule="evenodd" d="M12 22c5.523 0 10-4.477 10-10S17.523 2 12 2 2 6.477 2 12s4.477 10 10 10z" fill="#3BC935" /><path d="M8.25 11.688l2.5 3.437 5.625-6.875" stroke="#fff" stroke-width="1.667" stroke-linecap="round" /></symbol><symbol viewBox="0 0 24 24" id="twitter"><path d="M19.644 6.675a4.247 4.247 0 0 0 1.803-2.362c-.793.49-1.67.844-2.606 1.036A4.016 4.016 0 0 0 15.846 4c-2.265 0-4.101 1.913-4.101 4.272 0 .335.034.66.104.973C8.44 9.066 5.417 7.367 3.392 4.78a4.397 4.397 0 0 0-.555 2.149c0 1.481.724 2.789 1.825 3.556a3.994 3.994 0 0 1-1.859-.534v.053c0 2.07 1.413 3.797 3.293 4.188-.345.1-.707.15-1.083.15-.264 0-.522-.025-.77-.075.52 1.696 2.036 2.933 3.832 2.966A8.028 8.028 0 0 1 2 19.004a11.29 11.29 0 0 0 6.29 1.92c7.548 0 11.673-6.51 11.673-12.156 0-.186-.002-.37-.01-.553A8.508 8.508 0 0 0 22 6.003c-.736.34-1.527.57-2.356.672z" /></symbol><symbol viewBox="0 0 24 24" id="vk"><path d="M19.934 13.916c.73.713 1.5 1.383 2.155 2.167.289.349.563.708.772 1.113.297.575.028 1.208-.488 1.242l-3.205-.001c-.826.068-1.486-.265-2.04-.83-.444-.452-.855-.933-1.282-1.4a3.04 3.04 0 0 0-.576-.513c-.438-.284-.818-.197-1.068.26-.254.464-.312.978-.337 1.495-.034.754-.263.953-1.02.987-1.62.077-3.158-.168-4.587-.985-1.26-.721-2.236-1.738-3.086-2.89-1.655-2.242-2.922-4.706-4.06-7.239-.257-.57-.07-.877.56-.888a87.013 87.013 0 0 1 3.138-.001c.425.006.706.25.87.651.566 1.391 1.258 2.715 2.127 3.941.231.327.467.653.803.883.372.255.655.17.83-.244.11-.262.16-.545.184-.826.083-.967.094-1.933-.051-2.897-.09-.602-.428-.991-1.029-1.105-.306-.058-.26-.172-.112-.347.257-.302.5-.49.983-.49h3.622c.57.113.697.37.775.943l.003 4.024c-.006.222.11.881.51 1.028.321.105.532-.152.724-.355.868-.92 1.487-2.008 2.04-3.134.245-.495.456-1.01.66-1.524.152-.381.39-.569.82-.56l3.485.003c.104 0 .208.001.309.018.587.1.748.353.566.927-.285.9-.842 1.65-1.385 2.403-.582.805-1.204 1.582-1.78 2.39-.53.74-.488 1.112.17 1.754z" /></symbol></defs></svg>